#!OML:ASF I:\golf\golf\golf 2\Subject 1\2002-09-07\Subject1.ASF
:FULLY-SPECIFIED
:DEGREES
398
root -0.8481 17.6735 -2.87981 15.9946 13.6267 -3.827
lowerback 16.6 3.29072 1.28384
upperback 5.94908 4.78621 5.34718
thorax -3.29786 2.35012 4.00418
lowerneck -21.9202 -6.06888 -4.10047
upperneck 14.9688 -7.01099 0.188236
head 8.38161 -3.52882 -0.222251
rclavicle -4.77083e-015 -8.42847e-014
rhumerus -17.159 13.9202 -81.2278
rradius 40.934
rwrist -17.6756
rhand -31.9468 12.6482
rfingers 7.12502
rthumb -5.19738 -17.2681
lclavicle -4.77083e-015 -8.42847e-014
lhumerus -27.4057 -43.3097 102.019
lradius 43.4662
lwrist -1.08446
lhand -24.0981 13.5695
lfingers 7.12502
lthumb 2.38258 43.5359
rfemur -35.7986 -9.46802 27.8836
rtibia 41.8786
rfoot -14.6079 -17.8877
rtoes 2.46911
lfemur -41.3423 1.71764 -8.2349
ltibia 34.8616
lfoot -7.35566 -7.25373
ltoes -14.6639
399
root -0.866195 17.686 -2.85321 15.3835 13.3559 -3.96156
lowerback 16.1707 3.17468 1.20865
upperback 5.77908 4.61428 5.31849
thorax -3.24301 2.26732 4.06482
lowerneck -22.2222 -5.92469 -4.0792
upperneck 15.2511 -6.81124 0.20061
head 8.52478 -3.42994 -0.207452
rclavicle -3.65764e-014 3.18055e-015
rhumerus -17.5866 13.6846 -81.3265
rradius 40.6505
rwrist -17.3571
rhand -31.382 12.7193
rfingers 7.12502
rthumb -4.65203 -17.2096
lclavicle -3.65764e-014 3.18055e-015
lhumerus -27.5553 -42.5716 102.01
lradius 42.9529
lwrist -1.61967
lhand -24.1251 13.2872
lfingers 7.12502
lthumb 2.3565 43.2539
rfemur -34.8019 -9.28098 27.9412
rtibia 41.4262
rfoot -14.5087 -17.9224
rtoes 2.26852
lfemur -40.4133 1.72853 -7.98634
ltibia 34.6683
lfoot -7.37924 -7.1313
ltoes -14.1255
400
root -0.88314 17.6966 -2.82426 14.7449 13.067 -4.22415
lowerback 15.7309 3.09124 1.3379
upperback 5.60735 4.51313 5.26005
thorax -3.16993 2.21996 3.96393
lowerneck -22.3903 -5.80572 -3.91274
upperneck 15.4239 -6.68306 0.140367
head 8.60152 -3.3652 -0.243443
rclavicle -2.38542e-014 -1.59028e-015
rhumerus -18.1031 13.5004 -81.4661
rradius 40.4907
rwrist -17.1899
rhand -30.9056 12.5872
rfingers 7.12502
rthumb -4.19199 -17.3513
lclavicle -2.38542e-014 -1.59028e-015
lhumerus -27.8333 -42.366 102.131
lradius 42.3618
lwrist -1.27293
lhand -24.1195 13.4251
lfingers 7.12502
lthumb 2.36194 43.3918
rfemur -33.7759 -9.07621 28.1344
rtibia 40.9388
rfoot -14.456 -17.9103
rtoes 2.433
lfemur -39.4506 1.79506 -7.60982
ltibia 34.4597
lfoot -7.55686 -6.95986
ltoes -14.1083
401
root -0.901388 17.7061 -2.7966 14.1923 12.8364 -4.45886
lowerback 15.2262 3.00136 1.47168
upperback 5.39287 4.40242 5.19479
thorax -3.10548 2.16811 3.8561
lowerneck -22.4255 -5.7028 -3.75752
upperneck 15.5756 -6.58933 0.125706
head 8.65177 -3.31298 -0.263052
rclavicle -1.00187e-013 -9.22361e-014
rhumerus -18.7173 13.408 -81.5998
rradius 40.422
rwrist -17.1692
rhand -30.3808 12.6217
rfingers 7.12502
rthumb -3.68519 -17.3262
lclavicle -1.00187e-013 -9.22361e-014
lhumerus -28.1519 -42.4661 102.308
lradius 41.7109
lwrist -0.756534
lhand -24.3784 13.2669
lfingers 7.12502
lthumb 2.11187 43.2362
rfemur -32.8752 -8.88636 28.321
rtibia 40.5029
rfoot -14.538 -17.9251
rtoes 3.07489
lfemur -38.6338 1.89861 -7.28144
ltibia 34.3109
lfoot -7.83961 -6.93505
ltoes -14.9279
402
root -0.920385 17.7167 -2.76976 13.6246 12.4837 -4.57055
lowerback 14.7838 2.94065 1.36355
upperback 5.22591 4.2964 5.15651
thorax -3.04353 2.11724 3.91042
lowerneck -22.5131 -5.56845 -3.67386
upperneck 15.6976 -6.43052 0.126283
head 8.70292 -3.23263 -0.257994
rclavicle 1.11319e-014 2.38542e-014
rhumerus -19.256 13.4056 -81.6507
rradius 40.3419
rwrist -17.1359
rhand -30.0502 12.8969
rfingers 7.12502
rthumb -3.36598 -17.0563
lclavicle 1.11319e-014 2.38542e-014
lhumerus -28.2925 -41.4488 102.197
lradius 41.3858
lwrist -1.33634
lhand -23.8311 13.2543
lfingers 7.12502
lthumb 2.64052 43.2177
rfemur -31.9351 -8.61019 28.3415
rtibia 40.0794
rfoot -14.5252 -17.9128
rtoes 3.51237
lfemur -37.7323 1.98564 -7.08706
ltibia 34.1541
lfoot -8.13416 -6.76995
ltoes -16.5074
403
root -0.937734 17.7232 -2.74512 13.0502 12.1297 -4.68497
lowerback 14.3934 2.89189 1.28405
upperback 5.04929 4.21279 5.11
thorax -3.01722 2.07744 3.93273
lowerneck -22.5476 -5.4382 -3.56833
upperneck 15.7974 -6.29127 0.148193
head 8.73798 -3.15806 -0.249975
rclavicle -5.64548e-014 -7.71285e-014
rhumerus -19.7234 13.29 -81.6512
rradius 40.2626
rwrist -17.2099
rhand -29.5655 12.6501
rfingers 7.12502
rthumb -2.89781 -17.31
lclavicle -5.64548e-014 -7.71285e-014
lhumerus -28.4644 -41.2912 102.366
lradius 40.8258
lwrist -0.263484
lhand -23.1204 13.7673
lfingers 7.12502
lthumb 3.32678 43.7211
rfemur -30.994 -8.32813 28.3649
rtibia 39.6481
rfoot -14.4648 -17.8818
rtoes 3.76496
lfemur -36.8096 2.01654 -6.86763
ltibia 33.9585
lfoot -8.27749 -6.51273
ltoes -17.2895
404
root -0.95375 17.7304 -2.72281 12.5619 11.8717 -4.8689
lowerback 13.9531 2.80512 1.35088
upperback 4.83571 4.09968 5.07856
thorax -2.99106 2.02362 3.89407
lowerneck -22.6335 -5.32037 -3.48963
upperneck 15.9812 -6.16372 0.192564
head 8.81275 -3.08754 -0.234417
rclavicle -6.20208e-014 -2.22639e-014
rhumerus -20.1603 13.0894 -81.6013
rradius 40.1778
rwrist -17.4661
rhand -28.577 12.0628
rfingers 7.12502
rthumb -1.94317 -17.9081
lclavicle -6.20208e-014 -2.22639e-014
lhumerus -28.9703 -40.9006 102.523
lradius 40.7012
lwrist 0.736876
lhand -22.4866 14.0967
lfingers 7.12502
lthumb 3.93887 44.04
rfemur -30.1564 -8.09149 28.4948
rtibia 39.1899
rfoot -14.4235 -17.9191
rtoes 3.91784
lfemur -36.0074 2.02364 -6.56232
ltibia 33.7358
lfoot -8.281 -6.3789
ltoes -17.0182
405
root -0.967859 17.7445 -2.69513 12.0435 11.5064 -4.98951
lowerback 13.5319 2.7475 1.32019
upperback 4.67264 4.00997 5.05252
thorax -2.92989 1.98069 3.91205
lowerneck -22.7261 -5.1965 -3.47711
upperneck 16.1074 -6.0125 0.268013
head 8.87179 -3.00665 -0.193478
rclavicle -1.59028e-015 -3.18055e-014
rhumerus -20.6211 12.9256 -81.5196
rradius 40.0936
rwrist -17.5422
rhand -27.6621 11.8553
rfingers 7.12502
rthumb -1.05958 -18.1218
lclavicle -1.59028e-015 -3.18055e-014
lhumerus -29.1574 -40.4154 102.522
lradius 40.315
lwrist 0.486292
lhand -21.661 13.8398
lfingers 7.12502
lthumb 4.73609 43.7668
rfemur -29.2225 -7.85414 28.535
rtibia 38.6976
rfoot -14.4493 -17.8925
rtoes 4.45528
lfemur -35.0964 2.07572 -6.35388
ltibia 33.5237
lfoot -8.3514 -6.21184
ltoes -16.7883
406
root -0.980078 17.7566 -2.66661 11.484 11.1192 -5.11152
lowerback 13.1024 2.69421 1.30114
upperback 4.56267 3.92478 5.0333
thorax -2.80765 1.93961 3.931
lowerneck -22.7356 -5.07438 -3.46566
upperneck 16.1298 -5.86593 0.343388
head 8.88086 -2.92878 -0.149173
rclavicle 3.77691e-014 2.78299e-014
rhumerus -21.0315 12.741 -81.378
rradius 40.0697
rwrist -17.6427
rhand -26.6622 11.6369
rfingers 7.12502
rthumb -0.0937919 -18.3428
lclavicle 3.77691e-014 2.78299e-014
lhumerus -29.2597 -39.8968 102.496
lradius 39.8749
lwrist 0.0442635
lhand -20.6587 13.2263
lfingers 7.12502
lthumb 5.70387 43.1295
rfemur -28.2195 -7.64849 28.5717
rtibia 38.1726
rfoot -14.5065 -17.7586
rtoes 5.20179
lfemur -34.1396 2.11706 -6.14695
ltibia 33.3204
lfoot -8.41715 -5.97319
ltoes -16.6528
407
root -0.993224 17.7639 -2.64105 10.9725 10.7967 -5.26487
lowerback 12.6289 2.62208 1.31828
upperback 4.43704 3.81936 5.03915
thorax -2.67533 1.88862 3.95982
lowerneck -22.7215 -4.96659 -3.4295
upperneck 16.175 -5.73384 0.352094
head 8.89101 -2.86381 -0.133334
rclavicle 3.22031e-014 3.97569e-014
rhumerus -21.4263 12.5239 -81.1945
rradius 40.0878
rwrist -17.8851
rhand -25.5112 11.3144
rfingers 7.12502
rthumb 1.01781 -18.6629
lclavicle 3.22031e-014 3.97569e-014
lhumerus -29.5528 -39.4446 102.585
lradius 39.4901
lwrist -0.0743508
lhand -20.083 13.09
lfingers 7.12502
lthumb 6.25969 42.9776
rfemur -27.2719 -7.47257 28.6683
rtibia 37.623
rfoot -14.4872 -17.6466
rtoes 5.36066
lfemur -33.2813 2.13636 -5.88706
ltibia 33.1286
lfoot -8.34456 -5.75801
ltoes -15.365
408
root -1.00778 17.7731 -2.61481 10.4623 10.4318 -5.42513
lowerback 12.2042 2.57775 1.31596
upperback 4.29393 3.75119 5.05395
thorax -2.59121 1.85606 4.00027
lowerneck -22.7148 -4.86429 -3.40467
upperneck 16.271 -5.60273 0.347163
head 8.92002 -2.80144 -0.12142
rclavicle -8.18993e-014 -3.33958e-014
rhumerus -21.9106 12.4641 -81.072
rradius 40.1485
rwrist -17.8875
rhand -25.0774 11.1892
rfingers 7.12502
rthumb 1.43684 -18.7857
lclavicle -8.18993e-014 -3.33958e-014
lhumerus -29.8486 -39.0208 102.722
lradius 38.92
lwrist -0.324134
lhand -19.8825 13.5667
lfingers 7.12502
lthumb 6.45321 43.4484
rfemur -26.3221 -7.26174 28.7749
rtibia 37.0695
rfoot -14.4519 -17.5356
rtoes 5.45417
lfemur -32.4296 2.23697 -5.63913
ltibia 32.9725
lfoot -8.20338 -5.59803
ltoes -13.2773
409
root -1.02267 17.782 -2.58977 9.94749 10.0668 -5.6733
lowerback 11.8485 2.52833 1.43006
upperback 4.12473 3.69372 5.07899
thorax -2.56537 1.82903 3.98044
lowerneck -22.6325 -4.73003 -3.35053
upperneck 16.3071 -5.4379 0.332367
head 8.9137 -2.72315 -0.110107
rclavicle -6.40087e-014 -5.00937e-014
rhumerus -22.4476 12.4719 -81.0071
rradius 40.2175
rwrist -17.9852
rhand -24.8 11.1367
rfingers 7.12502
rthumb 1.70472 -18.8362
lclavicle -6.40087e-014 -5.00937e-014
lhumerus -30.087 -38.6458 102.868
lradius 38.2428
lwrist -0.748317
lhand -19.8497 13.9734
lfingers 7.12502
lthumb 6.48495 43.8542
rfemur -25.3745 -6.96215 28.985
rtibia 36.5069
rfoot -14.2652 -17.5561
rtoes 5.13801
lfemur -31.6113 2.36568 -5.30674
ltibia 32.8228
lfoot -8.33999 -5.39844
ltoes -13.8305
410
root -1.03576 17.7864 -2.5666 9.45508 9.72846 -5.87013
lowerback 11.5311 2.44683 1.51158
upperback 3.91735 3.59313 5.10327
thorax -2.59929 1.78067 3.98163
lowerneck -22.3653 -4.58292 -3.26034
upperneck 16.2318 -5.25967 0.252973
head 8.83419 -2.64477 -0.119244
rclavicle -2.26615e-014 -1.82882e-014
rhumerus -22.9594 12.4494 -80.9177
rradius 40.1584
rwrist -18.2537
rhand -24.052 10.9856
rfingers 7.12502
rthumb 2.42714 -18.9803
lclavicle -2.26615e-014 -1.82882e-014
lhumerus -30.4306 -38.2182 103.032
lradius 37.7858
lwrist -1.12852
lhand -19.6242 14.2965
lfingers 7.12502
lthumb 6.70262 44.1704
rfemur -24.4113 -6.68149 29.1513
rtibia 35.9134
rfoot -13.9845 -17.6236
rtoes 4.46271
lfemur -30.8047 2.40066 -5.01135
ltibia 32.6358
lfoot -8.72143 -5.1187
ltoes -16.1788
411
root -1.04584 17.7945 -2.54472 8.95054 9.34809 -5.97329
lowerback 11.2368 2.3556 1.50461
upperback 3.76335 3.46759 5.12531
thorax -2.59325 1.7194 4.03373
lowerneck -22.1679 -4.43364 -3.19911
upperneck 16.1412 -5.05718 0.132441
head 8.76106 -2.56089 -0.136077
rclavicle 2.38542e-014 2.38542e-015
rhumerus -23.2677 12.5525 -80.7614
rradius 39.967
rwrist -18.3708
rhand -23.4591 10.7904
rfingers 7.12502
rthumb 2.99978 -19.1683
lclavicle 2.38542e-014 2.38542e-015
lhumerus -30.7403 -37.7617 103.179
lradius 37.4188
lwrist -1.12516
lhand -19.3727 14.7333
lfingers 7.12502
lthumb 6.94541 44.5994
rfemur -23.4243 -6.41531 29.1947
rtibia 35.3052
rfoot -13.8269 -17.5901
rtoes 4.28483
lfemur -29.9255 2.38519 -4.81727
ltibia 32.4164
lfoot -8.90046 -4.82295
ltoes -17.3759
